<svg xmlns="http://www.w3.org/2000/svg" viewBox="420 515 475 90">
<path fill="#2C5F4D" opacity="1.000000" stroke="none"
	d="
M779.640015,596.219604
	C768.098938,596.411072 768.067383,596.411133 768.042664,585.442749
	C768.001038,566.975464 767.961487,548.507874 768.025818,530.040771
	C768.038025,526.551697 766.941284,522.271606 771.864136,520.890259
	C778.562317,519.010681 784.134888,520.868591 786.654541,525.570496
	C793.178284,537.744202 799.686279,549.926270 806.221008,562.094055
	C807.065552,563.666687 807.631348,565.481934 809.484070,566.399963
	C811.125183,564.738342 810.638428,562.657227 810.644531,560.756409
	C810.679749,549.767395 810.618958,538.778198 810.624329,527.789062
	C810.627197,521.886719 811.519897,520.953796 817.044495,520.836670
	C823.591675,520.697937 825.027893,521.727112 825.054260,527.391541
	C825.151001,548.203857 825.100830,569.016785 825.158997,589.829346
	C825.171753,594.395264 823.139893,595.984314 818.514038,596.477905
	C811.033142,597.276245 806.902283,594.268982 803.729126,587.738831
	C798.861145,577.720764 793.242004,568.066406 787.886414,558.288025
	C787.134277,556.914612 786.799561,555.041443 784.655396,554.760071
	C782.459717,556.083496 783.277039,558.303162 783.260071,560.129639
	C783.167419,570.118774 783.222290,580.109131 783.205383,590.099121
	C783.201050,592.631958 783.249634,595.231567 779.640015,596.219604
z"/>
<path fill="#2C5F4D" opacity="1.000000" stroke="none"
	d="
M522.886780,526.339600
	C529.119141,547.106018 535.232300,567.490356 541.287659,587.891907
	C542.153503,590.809204 544.033691,594.211670 539.636902,595.955933
	C534.249207,598.093445 527.913086,596.006165 526.581421,591.909912
	C523.176147,581.435303 523.176086,581.435364 512.231323,581.392456
	C511.898315,581.391113 511.565308,581.386597 511.232330,581.388855
	C498.587250,581.475525 500.645508,580.063782 497.281464,591.272034
	C495.903992,595.861572 486.359558,598.475403 482.694397,595.329407
	C480.428436,593.384399 481.636902,591.030273 482.286652,588.849609
	C486.940948,573.228821 491.641846,557.621826 496.307404,542.004333
	C497.830841,536.904846 499.460297,531.828369 500.733429,526.665466
	C501.842926,522.166321 504.420959,520.252441 508.996368,520.661987
	C511.143951,520.854248 513.328430,520.804321 515.485718,520.681274
	C519.399963,520.457947 521.862549,522.091553 522.886780,526.339600
M516.177429,556.136414
	C514.716736,552.145935 514.885498,547.508850 511.376160,543.201538
	C508.415802,550.535889 506.645782,557.197449 505.239929,563.961182
	C504.860382,565.787170 505.582916,567.442322 507.596313,567.671082
	C510.840851,568.039734 514.463623,569.021851 517.163452,566.678284
	C519.834412,564.359741 517.559875,561.442810 516.969116,558.808228
	C516.824341,558.162659 516.607849,557.533142 516.177429,556.136414
z"/>
<path fill="#2C5F4D" opacity="1.000000" stroke="none"
	d="
M564.917725,568.120605
	C566.354675,578.816956 570.860474,583.631042 578.870544,583.730957
	C584.679871,583.803467 588.103638,580.756470 590.445740,575.842468
	C592.550659,571.426147 600.942627,569.210876 604.927124,572.009033
	C607.505981,573.820007 606.822266,576.395203 606.141541,578.822327
	C602.469910,591.914490 588.960693,600.096252 574.462219,598.052856
	C562.036011,596.301453 553.423096,588.964050 550.967773,576.802551
	C548.548828,564.821289 548.602112,552.587402 550.936707,540.603333
	C553.028625,529.864990 559.881226,522.632385 570.645264,520.348816
	C581.718628,517.999634 592.228027,519.623657 600.660706,528.177979
	C602.665771,530.211914 604.184448,532.657654 605.116455,535.345276
	C606.235657,538.572876 608.538025,542.331543 605.879578,545.222473
	C602.897766,548.465149 598.386353,546.931580 594.477478,546.480286
	C592.098267,546.205566 591.560730,544.044189 590.709534,542.244263
	C587.688416,535.855225 583.864502,533.478943 577.354309,534.045837
	C571.224548,534.579651 567.711060,538.389160 566.178406,543.942017
	C564.031433,551.720947 563.776917,559.690979 564.917725,568.120605
z"/>
<path fill="#2C5F4D" opacity="1.000000" stroke="none"
	d="
M661.581543,559.671021
	C661.503479,563.983704 659.150391,565.247986 655.671448,565.253845
	C650.506165,565.262573 645.338501,565.384216 640.176331,565.265381
	C636.740662,565.186279 635.380005,566.701538 635.396851,570.051697
	C635.472412,585.110657 633.818787,582.370544 647.122009,582.634766
	C651.452942,582.720764 655.788391,582.777893 660.117798,582.676453
	C664.903809,582.564392 665.392639,585.546021 665.363831,589.275208
	C665.334290,593.101746 665.002686,596.388733 659.949158,596.362183
	C648.618896,596.302673 637.288208,596.302734 625.957825,596.338196
	C622.244812,596.349854 620.537170,594.798523 620.536926,590.921326
	C620.535767,569.624756 620.441772,548.327820 620.280640,527.031799
	C620.247009,522.586914 622.143494,520.691528 626.589783,520.734375
	C637.419250,520.838684 648.252380,520.857849 659.080383,520.686340
	C664.004639,520.608398 665.463684,523.011963 665.341003,527.491516
	C665.181580,533.318237 664.164307,534.841736 659.099670,534.965027
	C653.104492,535.111023 647.101379,535.129089 641.106201,534.996887
	C637.420288,534.915588 635.651428,536.268005 635.387695,540.129944
	C634.619263,551.382568 634.752258,551.625000 646.027588,551.586548
	C648.526917,551.578003 651.026367,551.579346 653.525696,551.595520
	C661.259705,551.645691 661.259705,551.649292 661.581543,559.671021
z"/>
<path fill="#2C5F4D" opacity="1.000000" stroke="none"
	d="
M841.768433,551.000000
	C841.757874,542.843567 841.694458,535.186768 841.754272,527.530884
	C841.796936,522.065491 843.129211,520.752625 848.585266,520.731079
	C858.904541,520.690369 869.224548,520.675903 879.543457,520.754395
	C884.795654,520.794312 885.709351,522.066650 886.012878,527.898743
	C886.243469,532.329346 884.827942,535.019409 879.989502,535.020813
	C874.164307,535.022461 868.336426,535.169800 862.514771,535.034607
	C858.721924,534.946472 857.125854,536.396057 857.167969,540.306580
	C857.294983,552.084473 856.563843,551.311340 867.340881,551.462769
	C870.668518,551.509521 874.007935,551.773560 877.320618,551.577209
	C882.258911,551.284729 883.188660,554.226990 883.229919,558.183838
	C883.271301,562.155090 882.203247,565.157837 877.484741,565.179321
	C872.491577,565.202026 867.495789,565.309021 862.505981,565.185364
	C858.783081,565.093140 857.033508,566.468628 857.067566,570.413452
	C857.196716,585.407898 855.749939,582.381775 868.562439,582.621460
	C872.888611,582.702454 877.217224,582.662659 881.544739,582.656067
	C887.012756,582.647827 886.217957,586.617188 886.337097,590.080261
	C886.457947,593.591675 886.012573,596.400146 881.423218,596.357910
	C870.106018,596.253662 858.787048,596.271851 847.469238,596.326111
	C843.044006,596.347351 841.731750,593.873352 841.744568,589.948486
	C841.786499,577.132446 841.765198,564.316162 841.768433,551.000000
z"/>
<path fill="#2C5F4D" opacity="1.000000" stroke="none"
	d="
M478.485382,537.020508
	C479.891907,542.530029 479.815857,547.754700 478.929413,552.803833
	C477.156708,562.900940 468.423584,569.989746 458.069519,570.321899
	C455.906158,570.391296 453.738617,570.328003 451.573059,570.334900
	C444.245911,570.358337 443.381378,571.237122 443.336700,578.776733
	C443.312988,582.774658 443.430786,586.776550 443.292053,590.769897
	C443.125824,595.555054 441.437073,596.412354 434.313385,596.318054
	C430.210815,596.263794 428.434631,594.947998 428.473358,590.414124
	C428.638397,571.097961 429.056183,551.774597 428.142670,532.461121
	C428.025146,529.976135 428.174500,527.465820 428.376923,524.981689
	C428.599915,522.244385 430.181885,520.700745 432.978760,520.782837
	C442.117615,521.050903 451.287323,520.069336 460.397644,521.574585
	C469.377472,523.058350 475.792480,527.523621 478.485382,537.020508
M443.323944,549.256348
	C443.402527,556.195618 443.859467,556.662659 450.662872,556.697693
	C452.161163,556.705383 453.662231,556.731201 455.157532,556.657410
	C460.503235,556.393738 463.913635,553.311096 464.601288,548.174255
	C465.429108,541.990540 463.049164,537.245239 458.181183,535.502808
	C455.152954,534.418884 451.993286,534.359131 448.813385,534.393066
	C445.157684,534.432129 443.207397,536.007202 443.317993,539.841003
	C443.399567,542.668884 443.328308,545.501099 443.323944,549.256348
z"/>
<path fill="#2C5F4D" opacity="1.000000" stroke="none"
	d="
M680.878723,539.004883
	C680.872192,534.508118 680.740601,530.504761 680.901917,526.513306
	C681.099731,521.617920 682.638184,520.755127 689.793152,520.817566
	C693.732361,520.851868 696.372375,521.631470 696.562195,526.596741
	C697.198792,543.251343 696.962830,559.904297 696.820496,576.554504
	C696.779419,581.357300 698.351074,583.071777 703.158508,582.756897
	C708.632324,582.398376 714.153687,582.837036 719.643982,582.638855
	C724.572815,582.460999 725.473206,585.187439 725.342957,589.290771
	C725.213257,593.375854 724.602661,596.497192 719.333740,596.392456
	C709.342041,596.193787 699.343750,596.340393 689.348206,596.318237
	C682.069519,596.302124 680.874939,595.132568 680.870789,587.981323
	C680.861328,571.822083 680.877686,555.662781 680.878723,539.004883
z"/>
<path fill="#2C5F4D" opacity="1.000000" stroke="none"
	d="
M748.361572,521.181030
	C751.186462,522.752563 751.208679,525.110962 751.205750,527.471802
	C751.179993,548.089050 751.174927,568.706360 751.107666,589.323486
	C751.088196,595.299622 749.885986,596.336487 743.574036,596.318787
	C736.557251,596.299133 735.730957,595.606140 735.722412,589.250000
	C735.695557,569.297607 735.714111,549.345276 735.715698,529.392883
	C735.716370,521.073853 736.163391,520.627014 744.474365,520.775757
	C745.633362,520.796509 746.790222,520.932922 748.361572,521.181030
z"/>
</svg>
