<svg xmlns="http://www.w3.org/2000/svg" viewBox="100 400 310 220">
<path fill="#2C5F4D" opacity="1.000000" stroke="none"
	d="
M200.089935,508.602081
	C192.527664,510.305664 185.980545,508.870758 180.615616,503.924255
	C176.702820,500.316650 173.451874,500.932159 169.596329,503.831696
	C155.591446,514.364014 141.011246,524.005676 125.144875,531.563416
	C122.290421,532.923035 119.423805,534.291870 116.462410,535.384277
	C112.052307,537.011169 108.111664,535.119568 106.392738,530.799438
	C104.735100,526.633362 106.112541,522.814697 110.489059,520.896118
	C131.089798,511.865112 149.704666,499.665985 167.310822,485.794525
	C172.908295,481.384430 178.411957,481.691162 184.099380,486.386108
	C195.383301,495.701019 196.935211,495.460541 206.300583,483.961700
	C224.293442,461.869965 242.318481,439.803772 260.454163,417.829285
	C270.842133,405.242371 286.488464,405.211151 296.895111,417.764374
	C305.082275,427.640320 313.002075,437.739777 320.949829,447.811554
	C324.729492,452.601288 329.451721,455.008209 335.617249,454.884308
	C344.804352,454.699707 353.953186,455.235840 362.767029,458.141541
	C386.894836,466.095764 401.910278,488.213043 401.225006,514.660767
	C400.629700,537.638428 382.882233,559.626526 359.694122,566.068115
	C354.550018,567.497192 349.366821,568.515686 343.947693,568.375854
	C337.751953,568.216003 337.307709,568.924500 337.155884,575.321655
	C337.017822,581.136353 337.703705,586.976501 336.482361,592.762268
	C334.288361,603.155457 325.563416,611.007629 315.756042,611.305054
	C305.187012,611.625488 294.669891,604.456726 293.121094,593.886169
	C291.026825,579.592590 289.945557,564.999878 294.674683,550.870300
	C299.901825,535.252930 315.943848,523.882141 332.464905,523.709595
	C335.797852,523.674805 339.138275,523.816162 342.462799,523.640625
	C347.847473,523.356201 352.076752,520.947937 354.503998,516.029236
	C357.107635,510.753052 355.088928,505.107849 349.785553,502.537018
	C346.115479,500.757843 342.179840,500.156250 338.114441,500.353210
	C320.053558,501.228333 305.429077,494.217590 293.390411,481.054657
	C287.597351,474.720581 287.130829,474.851959 281.857300,481.565399
	C269.387390,497.440216 256.729218,513.116577 239.983688,524.885010
	C230.648422,531.445679 220.748703,536.868713 209.870056,540.312439
	C204.311417,542.072083 199.600815,538.099915 199.682800,532.264282
	C199.728317,529.024292 201.225555,526.733276 204.213501,525.785400
	C231.924347,516.994324 250.080307,496.445068 267.289307,474.707886
	C270.392120,470.788605 273.456421,466.835632 276.662262,463.001709
	C283.089355,455.315308 290.143890,455.032928 297.054504,462.177887
	C300.872772,466.125671 304.393921,470.373535 308.349579,474.173187
	C318.011658,483.454102 330.293671,484.204010 342.784576,484.764435
	C353.367920,485.239227 362.854248,488.690521 368.139008,498.867676
	C377.438751,516.776794 364.980133,538.229004 344.750763,539.322754
	C339.435028,539.610229 334.100616,539.257690 328.803925,540.234985
	C316.739166,542.460815 308.422974,552.094299 308.271637,564.338196
	C308.183044,571.503784 308.177856,578.670776 308.182709,585.837097
	C308.186615,591.606750 310.732544,595.291687 314.727539,595.441101
	C318.904449,595.597412 321.610382,591.826721 321.656128,585.645874
	C321.698120,579.979736 321.581635,574.311951 321.663788,568.646729
	C321.824585,557.558044 329.228607,551.037720 340.154877,552.265076
	C363.279816,554.862732 384.675415,536.879272 385.322815,513.069763
	C386.019043,487.464752 366.320251,471.915619 345.835693,471.330383
	C336.180542,471.054535 326.489319,471.555603 317.841766,465.857910
	C312.578979,462.390472 308.580444,457.766937 304.677460,452.998291
	C298.450470,445.390259 292.437439,437.603119 286.081940,430.105377
	C280.232910,423.205109 276.481537,423.374908 270.766022,430.329590
	C252.043686,453.111145 233.327866,475.898071 214.626602,498.696930
	C210.838760,503.314697 206.356750,506.884338 200.089935,508.602081
z"/>
</svg>
